<svg width="13" height="13" viewBox="0 0 13 13" fill="none" xmlns="http://www.w3.org/2000/svg">
<path d="M6.49999 10.7391C8.8412 10.7391 10.7391 8.84117 10.7391 6.49996C10.7391 4.15876 8.8412 2.26083 6.49999 2.26083C4.15879 2.26083 2.26086 4.15876 2.26086 6.49996C2.26086 8.84117 4.15879 10.7391 6.49999 10.7391Z" fill="#FFC107"/>
<path d="M6.50002 1.69565C6.6561 1.69565 6.78263 1.56912 6.78263 1.41304V0.282618C6.78263 0.126538 6.6561 0 6.50002 0C6.34394 0 6.21741 0.126538 6.21741 0.282618V1.41306C6.21743 1.56912 6.34394 1.69565 6.50002 1.69565Z" fill="#FFD54F"/>
<path d="M6.50002 11.3044C6.34394 11.3044 6.21741 11.4309 6.21741 11.587V12.7174C6.21741 12.8735 6.34394 13 6.50002 13C6.6561 13 6.78263 12.8735 6.78263 12.7174V11.5869C6.78263 11.4309 6.6561 11.3044 6.50002 11.3044Z" fill="#FFD54F"/>
<path d="M12.7174 6.21741H11.5869C11.4309 6.21741 11.3043 6.34395 11.3043 6.50003C11.3043 6.65611 11.4309 6.78265 11.5869 6.78265H12.7174C12.8734 6.78265 13 6.65611 13 6.50003C13 6.34392 12.8734 6.21741 12.7174 6.21741Z" fill="#FFD54F"/>
<path d="M1.69565 6.49999C1.69565 6.34391 1.56912 6.21738 1.41304 6.21738H0.282618C0.126538 6.2174 0 6.34391 0 6.49999C0 6.65607 0.126538 6.7826 0.282618 6.7826H1.41306C1.56912 6.7826 1.69565 6.65607 1.69565 6.49999Z" fill="#FFD54F"/>
<path d="M3.71172 2.23602C3.7623 2.32363 3.85585 2.37752 3.95704 2.37731C4.00666 2.3775 4.05546 2.36443 4.09833 2.33945C4.23351 2.2614 4.27979 2.08857 4.20177 1.9534L3.63656 0.974451C3.55763 0.839806 3.38449 0.794633 3.24984 0.87356C3.11644 0.951745 3.07066 1.12264 3.1471 1.25704L3.71172 2.23602Z" fill="#FFD54F"/>
<path d="M9.28828 10.764C9.20933 10.6294 9.03619 10.5842 8.90154 10.6632C8.76819 10.7414 8.72241 10.9122 8.79879 11.0466L9.36401 12.0256C9.41458 12.1132 9.50814 12.1671 9.60932 12.1669C9.65894 12.1671 9.70775 12.154 9.75062 12.129C9.88579 12.051 9.93208 11.8781 9.85405 11.743L9.28828 10.764Z" fill="#FFD54F"/>
<path d="M10.9052 4.23911C10.9548 4.2393 11.0036 4.22624 11.0465 4.20125L12.0255 3.63605C12.1638 3.56369 12.2172 3.39294 12.1449 3.25463C12.0725 3.11633 11.9018 3.06287 11.7635 3.13522C11.7564 3.13891 11.7495 3.14288 11.7428 3.14715L10.7639 3.71235C10.6287 3.7904 10.5824 3.96325 10.6605 4.0984C10.7109 4.18583 10.8042 4.2397 10.9052 4.2397V4.23911H10.9052Z" fill="#FFD54F"/>
<path d="M1.95342 8.79872L0.974471 9.36393C0.839296 9.44198 0.79301 9.61481 0.871036 9.74998C0.921508 9.83742 1.0148 9.89128 1.11577 9.89128C1.16539 9.89146 1.21419 9.8784 1.25706 9.85342L2.23601 9.28821C2.37431 9.21585 2.42777 9.0451 2.35542 8.9068C2.28306 8.76849 2.1123 8.71503 1.974 8.78738C1.96696 8.79107 1.96009 8.79504 1.95339 8.79931L1.95342 8.79872Z" fill="#FFD54F"/>
<path d="M0.974478 3.63604L1.95343 4.20125C1.99616 4.22613 2.04473 4.23922 2.09417 4.23911C2.25025 4.23911 2.37676 4.11258 2.37676 3.9565C2.37676 3.85555 2.32289 3.76226 2.23546 3.71177L1.25651 3.14656C1.12478 3.06284 0.95013 3.10173 0.866407 3.23343C0.782684 3.36514 0.821578 3.53982 0.953283 3.62354C0.959986 3.6278 0.966848 3.63178 0.973895 3.63546L0.974478 3.63604Z" fill="#FFD54F"/>
<path d="M12.0255 9.36395L11.0466 8.79875C10.9148 8.71503 10.7402 8.75392 10.6564 8.88562C10.5727 9.01733 10.6116 9.192 10.7433 9.27573C10.75 9.27999 10.7569 9.28397 10.7639 9.28765L11.7429 9.85285C11.7858 9.87784 11.8346 9.8909 11.8842 9.89071C12.0403 9.89071 12.1668 9.76418 12.1668 9.6081C12.1668 9.50713 12.1129 9.41384 12.0255 9.36337V9.36395H12.0255Z" fill="#FFD54F"/>
<path d="M8.90216 2.33943C8.94505 2.36441 8.99383 2.37747 9.04345 2.37729C9.14461 2.3775 9.23816 2.32358 9.28876 2.23599L9.85397 1.25704C9.9311 1.12136 9.88362 0.948832 9.74794 0.871706C9.61353 0.795322 9.4427 0.841079 9.36449 0.974452L8.79928 1.9534C8.72115 2.08839 8.76719 2.26119 8.90216 2.33943Z" fill="#FFD54F"/>
<path d="M4.09781 10.6606C3.96264 10.5826 3.78981 10.6288 3.71176 10.764L3.14655 11.743C3.06852 11.8782 3.11481 12.051 3.24998 12.129C3.29288 12.154 3.34166 12.1671 3.39128 12.1669C3.49244 12.1671 3.58602 12.1132 3.63659 12.0256L4.20181 11.0466C4.2797 10.9114 4.23323 10.7386 4.09797 10.6607C4.09792 10.6606 4.09787 10.6606 4.09781 10.6606Z" fill="#FFD54F"/>
</svg>
