<svg width="10" height="10" viewBox="0 0 10 10" fill="none" xmlns="http://www.w3.org/2000/svg">
<path d="M5.62973 0.736393C5.40561 0.469584 5.19216 0.22412 5.00006 0C4.80796 0.234792 4.59451 0.480256 4.37039 0.736393C3.015 2.29456 1.14734 4.46105 1.14734 6.14728C1.14734 7.21451 1.57423 8.17503 2.27861 8.86873C2.97231 9.56243 3.93282 10 5.00006 10C6.0673 10 7.02781 9.57311 7.72151 8.86873C8.41522 8.17503 8.85278 7.20384 8.85278 6.14728C8.85278 4.46105 6.98512 2.30523 5.62973 0.736393ZM5.02141 9.12487C4.22098 9.12487 3.48459 8.79402 2.96164 8.27108C2.43869 7.74813 2.10785 7.01174 2.10785 6.21131C2.09718 6.0619 2.22525 5.9445 2.37466 5.9445C2.52407 5.9445 2.64147 6.0619 2.64147 6.21131C2.64147 6.873 2.90828 7.45998 3.33517 7.89755C3.76207 8.32444 4.35972 8.59125 5.02141 8.59125C5.17082 8.59125 5.28821 8.70864 5.28821 8.85806C5.28821 9.00747 5.17082 9.12487 5.02141 9.12487Z" fill="#54AFE2"/>
</svg>
